<svg xmlns="http://www.w3.org/2000/svg" viewBox="0 0 264 36" overflow="visible" id="svg-702861160_2585"><g><defs><path d="M 256.08 0 L 256.08 0 L 8.299 0 C 8.055 0 7.819 0.089 7.636 0.251 L 0.676 6.403 C 0.246 6.783 0 7.328 0 7.902 L 0 18 L 0 18 L 0 28.098 C 0 28.672 0.246 29.217 0.676 29.597 L 7.636 35.749 C 7.819 35.911 8.055 36 8.299 36 L 260.04 36 L 260.04 36 L 264 36 L 264 25.2 L 264 20.829 L 264 1 C 264 0.448 263.552 0 263 0 Z" id="svg-702861160_2585_a1169z"/><filter id="svg-702861160_2585_a1171z" filterUnits="objectBoundingBox" x="-22.9%" y="-166.0%" width="145.6%" height="430.7%"><feOffset dx="-8" dy="-8" in="SourceAlpha" result="a1177z"/><feGaussianBlur stdDeviation="12" in="a1177z" result="a1178z"/><feFlood flood-color="rgba(6, 6, 12, 0.15)" result="a1179z"/><feComposite in="a1179z" in2="a1178z" operator="in" result="a1172z"/></filter><filter id="svg-702861160_2585_a1174z" x="-9.1%" y="-76.7%" width="118.0%" height="252.1%" filterUnits="objectBoundingBox"><feGaussianBlur stdDeviation="12" in="SourceAlpha" result="a1180z"/><feOffset dx="0" dy="4" in="a1180z" result="a1181z"/><feComposite in="a1181z" in2="SourceAlpha" operator="arithmetic" k2="-1" k3="1" result="a1182z"/><feFlood flood-color="rgba(158, 158, 219, 0.02)" result="a1183z"/><feComposite in="a1183z" in2="a1182z" operator="in" result="a1175z"/><feGaussianBlur stdDeviation="6" in="SourceAlpha" result="a1184z"/><feOffset dx="0" dy="2" in="a1184z" result="a1185z"/><feComposite in="a1185z" in2="SourceAlpha" operator="arithmetic" k2="-1" k3="1" result="a1186z"/><feFlood flood-color="rgba(158, 158, 219, 0.05)" result="a1187z"/><feComposite in="a1187z" in2="a1186z" operator="in" result="a1176z"/><feMerge><feMergeNode in="a1175z"/><feMergeNode in="a1176z"/></feMerge></filter></defs><mask id="svg-702861160_2585_a1173z" x="-22.9%" y="-166.0%" width="145.6%" height="430.7%"><rect x="-22.9%" y="-166.0%" width="145.6%" height="430.7%" fill="white"/><use href="#svg-702861160_2585_a1169z" fill="black"/></mask><g filter="url(#svg-702861160_2585_a1171z)" mask="url(#svg-702861160_2585_a1173z)"><use stroke-width="1" stroke="black" fill="black" href="#svg-702861160_2585_a1169z" clip-path="url(#svg-702861160_2585_a1170z)"/></g><use href="#svg-702861160_2585_a1169z" fill="rgba(6, 6, 12, 0.5)" stroke-opacity="0"/><use fill="black" fill-opacity="1" filter="url(#svg-702861160_2585_a1174z)" href="#svg-702861160_2585_a1169z"/><use href="#svg-702861160_2585_a1169z" clip-path="url(#svg-702861160_2585_a1170z)" fill="transparent" stroke-width="1" stroke="rgba(255, 255, 255, 0.02)"/></g></svg>