<svg xmlns="http://www.w3.org/2000/svg" viewBox="0 0 264 36" overflow="visible" id="svg-1059149554_2616"><g><defs><path d="M 7.92 0 L 7.92 0 L 255.701 0 C 255.945 0 256.181 0.089 256.364 0.251 L 263.324 6.403 C 263.754 6.783 264 7.328 264 7.902 L 264 18 L 264 18 L 264 28.098 C 264 28.672 263.754 29.217 263.324 29.597 L 256.364 35.749 C 256.181 35.911 255.945 36 255.701 36 L 3.96 36 C 3.937 36 3.983 36 3.96 36 L 0 36 L 0 25.2 L 0 20.829 L 0 1 C 0 0.448 0.448 0 1 0 Z" id="svg-1059149554_2616_a1142z"/><filter id="svg-1059149554_2616_a1144z" filterUnits="objectBoundingBox" x="-22.9%" y="-166.0%" width="145.6%" height="430.7%"><feOffset dx="8" dy="-8" in="SourceAlpha" result="a1150z"/><feGaussianBlur stdDeviation="12" in="a1150z" result="a1151z"/><feFlood flood-color="rgba(6, 6, 12, 0.15)" result="a1152z"/><feComposite in="a1152z" in2="a1151z" operator="in" result="a1145z"/></filter><filter id="svg-1059149554_2616_a1147z" x="-9.1%" y="-76.7%" width="118.0%" height="252.1%" filterUnits="objectBoundingBox"><feGaussianBlur stdDeviation="12" in="SourceAlpha" result="a1153z"/><feOffset dx="0" dy="4" in="a1153z" result="a1154z"/><feComposite in="a1154z" in2="SourceAlpha" operator="arithmetic" k2="-1" k3="1" result="a1155z"/><feFlood flood-color="rgba(158, 158, 219, 0.02)" result="a1156z"/><feComposite in="a1156z" in2="a1155z" operator="in" result="a1148z"/><feGaussianBlur stdDeviation="6" in="SourceAlpha" result="a1157z"/><feOffset dx="0" dy="2" in="a1157z" result="a1158z"/><feComposite in="a1158z" in2="SourceAlpha" operator="arithmetic" k2="-1" k3="1" result="a1159z"/><feFlood flood-color="rgba(158, 158, 219, 0.05)" result="a1160z"/><feComposite in="a1160z" in2="a1159z" operator="in" result="a1149z"/><feMerge><feMergeNode in="a1148z"/><feMergeNode in="a1149z"/></feMerge></filter></defs><mask id="svg-1059149554_2616_a1146z" x="-22.9%" y="-166.0%" width="145.6%" height="430.7%"><rect x="-22.9%" y="-166.0%" width="145.6%" height="430.7%" fill="white"/><use href="#svg-1059149554_2616_a1142z" fill="black"/></mask><g filter="url(#svg-1059149554_2616_a1144z)" mask="url(#svg-1059149554_2616_a1146z)"><use stroke-width="1" stroke="black" fill="black" href="#svg-1059149554_2616_a1142z" clip-path="url(#svg-1059149554_2616_a1143z)"/></g><use href="#svg-1059149554_2616_a1142z" fill="rgba(6, 6, 12, 0.5)" stroke-opacity="0"/><use fill="black" fill-opacity="1" filter="url(#svg-1059149554_2616_a1147z)" href="#svg-1059149554_2616_a1142z"/><use href="#svg-1059149554_2616_a1142z" clip-path="url(#svg-1059149554_2616_a1143z)" fill="transparent" stroke-width="1" stroke="rgba(255, 255, 255, 0.02)"/></g></svg>